# xmcd
#
# Track frame offsets: 
#        150
#        39357
#        71702
#        142222
#        167347
#        191057
#        209892
#        241980
#
# Disc length: 3795 seconds
#
# Revision: 1
# Processed by: cddbd v1.5.2PL0 Copyright (c) Steve Scherf et al.
# Submitted via: ExactAudioCopy v0.95b4
#
DISCID=7a0ed108
DTITLE=Ornette Coleman and Don Cherry - Jazz and Dintorni vol.30 
DYEAR=1900
DGENRE=Jazz
TTITLE0=Art Deco - Cherry
TTITLE1=When Will the Blues Leave - Coleman
TTITLE2=Theme From a Symphony (Variation One) - Coleman
TTITLE3=The Blessing - Coleman
TTITLE4=Brown Rice - Cherry
TTITLE5=Rhumba Multikulti - Cherry, Huffmann, Jones
TTITLE6=Degi-Degi - Cherry
TTITLE7=O.C. - Haden
EXTD=
EXTT0=
EXTT1=
EXTT2=
EXTT3=
EXTT4=
EXTT5=
EXTT6=
EXTT7=
PLAYORDER=
